<svg width="34" height="34" viewBox="0 0 34 34" fill="none" xmlns="http://www.w3.org/2000/svg">
<path d="M17 34C7.6109 34 0 26.3891 0 17C0 7.6109 7.6109 0 17 0C26.3891 0 34 7.6109 34 17C34 26.3891 26.3891 34 17 34ZM17 30.6C20.6069 30.6 24.0662 29.1671 26.6167 26.6167C29.1671 24.0662 30.6 20.6069 30.6 17C30.6 13.3931 29.1671 9.93384 26.6167 7.38335C24.0662 4.83285 20.6069 3.4 17 3.4C13.3931 3.4 9.93384 4.83285 7.38335 7.38335C4.83285 9.93384 3.4 13.3931 3.4 17C3.4 20.6069 4.83285 24.0662 7.38335 26.6167C9.93384 29.1671 13.3931 30.6 17 30.6ZM15.3 22.1H18.7V25.5H15.3V22.1ZM18.7 19.3035V20.4H15.3V17.85C15.3 17.3991 15.4791 16.9667 15.7979 16.6479C16.1167 16.3291 16.5491 16.15 17 16.15C17.4829 16.15 17.9559 16.0128 18.364 15.7545C18.772 15.4961 19.0983 15.1272 19.3048 14.6907C19.5114 14.2542 19.5897 13.768 19.5308 13.2886C19.4718 12.8093 19.2779 12.3566 18.9717 11.9831C18.6655 11.6097 18.2596 11.3309 17.8011 11.1791C17.3426 11.0274 16.8505 11.009 16.3819 11.126C15.9134 11.243 15.4877 11.4907 15.1544 11.8402C14.8211 12.1897 14.594 12.6266 14.4993 13.1002L11.1639 12.4321C11.3707 11.3986 11.8482 10.4386 12.5476 9.6502C13.247 8.86176 14.1432 8.27319 15.1446 7.94464C16.146 7.6161 17.2167 7.55937 18.2473 7.78025C19.2778 8.00112 20.2312 8.49169 21.01 9.2018C21.7888 9.91191 22.3651 10.8161 22.6799 11.8219C22.9947 12.8277 23.0368 13.8991 22.8019 14.9265C22.5669 15.9539 22.0634 16.9005 21.3427 17.6696C20.622 18.4386 19.71 19.0024 18.7 19.3035Z" fill="black"/>
</svg>
