<svg width="33" height="33" viewBox="0 0 33 33" fill="currentColor" xmlns="http://www.w3.org/2000/svg">
<path d="M5.775 25.575H3.3V7.425H16.17L14.85 8.745C14.52 9.075 14.355 9.405 14.355 9.9C14.355 10.89 15.015 11.55 16.005 11.55C16.5 11.55 16.83 11.385 17.16 11.055L21.285 6.93C21.945 6.27 21.945 5.28 21.285 4.62L17.16 0.495C16.5 -0.165 15.51 -0.165 14.85 0.495C14.19 1.155 14.19 2.145 14.85 2.805L16.17 4.125H1.65C0.66 4.125 0 4.785 0 5.775V27.225C0 28.215 0.66 28.875 1.65 28.875H5.775C6.765 28.875 7.425 28.215 7.425 27.225C7.425 26.235 6.765 25.575 5.775 25.575ZM31.35 4.125H27.225C26.235 4.125 25.575 4.785 25.575 5.775C25.575 6.765 26.235 7.425 27.225 7.425H29.7V25.575H15.84L17.16 24.255C17.82 23.595 17.82 22.605 17.16 21.945C16.5 21.285 15.51 21.285 14.85 21.945L10.725 26.07C10.065 26.73 10.065 27.72 10.725 28.38L14.85 32.505C15.18 32.835 15.51 33 16.005 33C16.5 33 16.83 32.835 17.16 32.505C17.82 31.845 17.82 30.855 17.16 30.195L15.84 28.875H31.35C32.34 28.875 33 28.215 33 27.225V5.775C33 4.785 32.34 4.125 31.35 4.125Z" fill="black"/>
</svg>
