<svg width="18" height="14" viewBox="0 0 12 10" fill="none" xmlns="http://www.w3.org/2000/svg">
<path id="Vector" d="M11.7727 3.30208C11.8641 3.22135 12 3.29688 12 3.42448V8.75C12 9.4401 11.4961 10 10.875 10H1.125C0.503906 10 0 9.4401 0 8.75V3.42708C0 3.29688 0.133594 3.22396 0.227344 3.30469C0.752344 3.75781 1.44844 4.33333 3.83906 6.26302C4.33359 6.66406 5.16797 7.50781 6 7.5026C6.83672 7.51042 7.6875 6.64844 8.16328 6.26302C10.5539 4.33333 11.2477 3.75521 11.7727 3.30208ZM6 6.66667C6.54375 6.67708 7.32656 5.90625 7.72031 5.58854C10.8305 3.08073 11.0672 2.86198 11.7844 2.23698C11.9203 2.11979 12 1.9375 12 1.74479V1.25C12 0.559896 11.4961 0 10.875 0H1.125C0.503906 0 0 0.559896 0 1.25V1.74479C0 1.9375 0.0796875 2.11719 0.215625 2.23698C0.932813 2.85937 1.16953 3.08073 4.27969 5.58854C4.67344 5.90625 5.45625 6.67708 6 6.66667Z" fill="white"/>
</svg>
