<svg width="32" height="32" viewBox="0 0 32 32" fill="none" xmlns="http://www.w3.org/2000/svg">
<rect width="32" height="32" rx="8" fill="white"/>
<g clip-path="url(#clip0_757_6)">
<path fill-rule="evenodd" clip-rule="evenodd" d="M15.8774 29.4751C33.5892 29.5927 28.902 10.0511 16.0062 13.8925L16.031 10.9023L12.3547 12.6968L12.2162 29.4508C12.8795 29.4552 15.2541 29.5054 15.8774 29.4751ZM15.9769 17.4311C24.6219 13.9498 28.4743 26.739 15.9063 25.9758L15.9769 17.4311Z" fill="#332175"/>
<path d="M24.5257 3.1484L4.20129 5.07166C4.31064 6.45737 5.55747 7.48388 6.96747 7.34904L19.8466 6.11747L8.25126 11.6459C6.86706 12.3059 6.3163 13.9609 7.03755 15.2931L12.3547 12.6976L16.031 10.9031L27.2939 5.40532C27.1702 4.02871 25.9278 3.01572 24.5257 3.1484Z" fill="#048430"/>
</g>
<defs>
<clipPath id="clip0_757_6">
<rect width="24" height="27" fill="white" transform="translate(4 3)"/>
</clipPath>
</defs>
</svg>
