<svg width="23" height="26" viewBox="0 0 23 26" fill="none" xmlns="http://www.w3.org/2000/svg">
<path d="M20.5945 2.37925C17.3895 -0.793083 12.1703 -0.793083 8.96865 2.37925L0.088493 11.1621C0.0306529 11.2194 3.14544e-05 11.2968 3.14544e-05 11.3776C3.14544e-05 11.4585 0.0306529 11.5359 0.088493 11.5932L1.34396 12.8358C1.40135 12.8924 1.47903 12.9241 1.56001 12.9241C1.64099 12.9241 1.71868 12.8924 1.77606 12.8358L10.6562 4.05298C11.7586 2.96185 13.225 2.36241 14.7833 2.36241C16.3416 2.36241 17.808 2.96185 18.907 4.05298C20.0093 5.1441 20.6149 6.59556 20.6149 8.13458C20.6149 9.67696 20.0093 11.1251 18.907 12.2162L9.85667 21.1708L8.39025 22.6222C7.0191 23.9794 4.79056 23.9794 3.4194 22.6222C2.75594 21.9655 2.39189 21.0933 2.39189 20.1638C2.39189 19.2344 2.75594 18.3622 3.4194 17.7055L12.3982 8.82158C12.6262 8.59931 12.9256 8.47471 13.2454 8.47471H13.2488C13.5686 8.47471 13.8647 8.59931 14.0892 8.82158C14.3172 9.04721 14.4397 9.34357 14.4397 9.66012C14.4397 9.97332 14.3138 10.2697 14.0892 10.4919L6.75032 17.7492C6.69248 17.8065 6.66185 17.8839 6.66185 17.9648C6.66185 18.0456 6.69248 18.123 6.75032 18.1803L8.00579 19.423C8.06317 19.4795 8.14086 19.5113 8.22184 19.5113C8.30282 19.5113 8.3805 19.4795 8.43789 19.423L15.7734 12.1623C16.4504 11.4921 16.8213 10.6031 16.8213 9.65676C16.8213 8.71045 16.447 7.81802 15.7734 7.15122C14.375 5.76711 12.1022 5.77048 10.7039 7.15122L9.83285 8.01671L1.72843 16.0351C1.17837 16.5764 0.742354 17.2203 0.445657 17.9296C0.14896 18.6389 -0.00250982 19.3995 3.14544e-05 20.1672C3.14544e-05 21.7264 0.615859 23.1914 1.72843 24.2926C2.88183 25.4309 4.39248 26 5.90313 26C7.41378 26 8.92442 25.4309 10.0744 24.2926L20.5945 13.8865C22.1426 12.3509 23 10.3067 23 8.13458C23.0034 5.95907 22.146 3.9149 20.5945 2.37925Z" fill="black"/>
</svg>
