<svg width="41" height="46" viewBox="0 0 41 46" fill="none" xmlns="http://www.w3.org/2000/svg">
<path fill-rule="evenodd" clip-rule="evenodd" d="M20.2905 45.1067C50.5482 45.3072 42.541 12.014 20.5106 18.5587L20.5529 13.4643L14.2727 16.5216L14.036 45.0653C15.1692 45.0728 19.2257 45.1584 20.2905 45.1067ZM20.4606 24.5873C35.2291 18.6562 41.8103 40.4453 20.3399 39.145L20.4606 24.5873Z" fill="#332175"/>
<path d="M35.0647 0.25257L0.343901 3.52923C0.530705 5.89007 2.6607 7.63894 5.06945 7.40922L27.0713 5.31098L7.2626 14.7298C4.89791 15.8542 3.95703 18.6739 5.18918 20.9435L14.2727 16.5216L20.5529 13.4643L39.7937 4.09769C39.5825 1.75236 37.46 0.0265228 35.0647 0.25257Z" fill="#048430"/>
</svg>
